/* XPM */
static char *cd6f4abcec414ed4db7463d8dc0592cbHD2t7pFqKx7iJZAh[] = {
/* columns rows colors chars-per-pixel */
"64 64 2 1 ",
"  c None",
". c #EA0E0E",
/* pixels */
"     ....  ....   ...   ....  .                                 ",
"     .  .  .  .   .     .     .                                 ",
"        .  .  .   .     .     .                                 ",
"        .  .  .   .     .     .                                 ",
"      ...  .  .   ...   .     ....                              ",
"        . ......  .     .     .  .                              ",
"   .    . .    .  .     .     .  .                              ",
"   ...... .    .  ..... ....  ....                              ",
"                                                                ",
"                                                                ",
"                                                                ",
"                   .     . .... .....  .      .                 ",
"                   ..   .. .  . ..     .     . .                ",
"                   . . . . .  . .     ...   .   .               ",
"                   .  .  . .  . .     . .   .   .               ",
"                   .     . .  . .     . ..  .....               ",
"                   .     . .  . .    ..  .  .   .               ",
"                   .     . .... .    .   .  .   .               ",
"                                                                ",
"                                                                ",
"                                                                ",
"                                                                ",
"                   .....  .     . ..... .                       ",
"                   .      .     .   .   .                       ",
"                   .      .     .   .   .                       ",
"                   .      .     .   .   .                       ",
"                   .....  ..... .   .   .....                   ",
"                   .   .  .   . .   .   .   .                   ",
"                   .....  ..... .   .   .....                   ",
"                                                                ",
"                                                                ",
"                                                                ",
"                   ....     .    . . .   .                      ",
"                   ....    . .   . . .  . .                     ",
"                   .  .   .   .  . . . .   .                    ",
"                   .  .   .   .  . . . .   .                    ",
"                   .  .   .....  . . . .   .                    ",
"                   ...... .   .  . . . .....                    ",
"                   .    . .   .  . . . .   .                    ",
"                   .    . .   .  . . . .   .                    ",
"                   ...... .   .  ..... .   .                    ",
"                                                                ",
"                                                                ",
"                                                                ",
"                  . ..... ..... .   .   .     .   ..   ..   .   ",
"                  .       .     .  ..   .    . .  ... ...  . .  ",
"                  .     . .     . .    . .  .   . . . . . .   . ",
"                  .     . .     ..     . .  .   . .  .  . .   . ",
"                  .     . .     ..     . .  .   . .     . .   . ",
"                  .....   ...   . .   .   . .   . .     . .   . ",
"                  .       .     .  .  .   . ..... .     . ..... ",
"                  .       .     .   . .   . .   . .     . .   . ",
"                  .       .     .   . .   . .   . .     . .   . ",
"                  .       .     .   . .   . .   . .     . .   . ",
"                  .       ..... .   . .   . .   . .     . .   . ",
"                                                                ",
"                                                                ",
"                                                                ",
"                                                                ",
"                                                                ",
"                                                                ",
"                                                                ",
"                                                                ",
"                                                                "
};
