/* XPM */
static char *_5227ca02a224c83ed0a6b1f6941243br2jTNIfjIkR7RFCy[] = {
/* columns rows colors chars-per-pixel */
"64 64 3 1 ",
"  c black",
". c #CC8005",
"X c #FBFF00",
/* pixels */
"                                                              ..",
"                                                              ..",
"  XXXXXXXXXXXXXXXXXXXXXXXXXXXXXXXXXXXXXXXXXXXXXXXXXXXXXXXXXXXX..",
"  XXXXXXXXXXXXXXXXXXXXXXXXXXXXXXXXXXXXXXXXXXXXXXXXXXXXXXXXXXXX..",
"  XX   XXXXXXXXXXXXXXXXXXXXXXXXXXXXXXXXXXXXXXXXXXXXXXXXXX   XX..",
"  XX   XXXXXXXXXXXXXXXXXXXXXXXXXXXXXXXXXXXXXXXXXXXXXXXXXX   XX..",
"  XX   XXXXXXXXXXXXXXXXXXXXXXXXXXXXXXXXXXXXXXXXXXXXXXXXXX   XX..",
"  XXXXXXXXXXXXXXXXXXXXXXXXXXXXXXXXXXXXXXXXXXXXXXXXXXXXXXXXXXXX..",
"  XXXXXXXXXXXXXXXXXXXXXXXXXXXXXXXXXXXXXXXXXXXXXXXXXXXXXXXXXXXX..",
"  XXXXXXXXXXXXXX..........XX..........XX.........XXXXXXXXXXXXX..",
"  XXXXXXXXXXXXX .         X .        .X .        XXXXXXXXXXXXX..",
"  XXXXXXXXXXXXX .XXXXXXXXXX .XXXXXXX .X .XXXXXXXXXXXXXXXXXXXXX..",
"  XXXXXXXXXXXXX .XXXXXXXXXX .XXXXXXX .X .XXXXXXXXXXXXXXXXXXXXX..",
"  XXXXXXXXXXXXX .XXXXXXXXXX .XXXXXXX .X .XXXXXXXXXXXXXXXXXXXXX..",
"  XXXXXXXXXXXXX .XXXXXXXXXX .XXXXXXX .X .XXXXXXXXXXXXXXXXXXXXX..",
"  XXXXXXXXXXXXX .XXXXXXXXXX .XXXXXXX .X .XXXXXXXXXXXXXXXXXXXXX..",
"  XXXXXXXXXXXXX ..........X .XXXXXXX .X .XXXXXXXXXXXXXXXXXXXXX..",
"  XXXXXXXXXXXXX .        .X .XXXXXXX .X .XXXXXXXXXXXXXXXXXXXXX..",
"  XXXXXXXXXXXXX .XXXXXXX .X .XXXXXXX .X .XXXXXXXXXXXXXXXXXXXXX..",
"  XXXXXXXXXXXXX .XXXXXXX .X .XXXXXXX .X .XXXXXXXXXXXXXXXXXXXXX..",
"  XXXXXXXXXXXXX .XXXXXXX .X .XXXXXXX .X .XXXXXXXXXXXXXXXXXXXXX..",
"  XXXXXXXXXXXXX ..........X ..........X .XXXXXXXXXXXXXXXXXXXXX..",
"  XXXXXXXXXXXXX          XX          XX XXXXXXXXXXXXXXXXXXXXXX..",
"  XXXXXXXXXXXXXXXXXXXXXXXXX ..........XXXXXXXXXXXXXXXXXXXXXXXX..",
"  XXXXXXXXXXXXXXXXXXXXXXXXX .        XXXXXXXXXXXXXXXXXXXXXXXXX..",
"  XXXXXXXXXXXXXXXXXXXXXXXXX .XXXXXXXXXXXXXXXXXXXXXXXXXXXXXXXXX..",
"  XXXXXXXXXXXXXXXXXXXXXXXXX .XXXXXXXXXXXXXXXXXXXXXXXXXXXXXXXXX..",
"  XXXXXXXXXXXXXXXXXXXXXXXXX .XXXXXXXXXXXXXXXXXXXXXXXXXXXXXXXXX..",
"  XXXXXXXXXXXXXXXXXXXXXXXXX .XXXXXXXXXXXXXXXXXXXXXXXXXXXXXXXXX..",
"  XXXXXXXXXXXXXXXXXXXXXXXXX .XXXXXXXXXXXXXXXXXXXXXXXXXXXXXXXXX..",
"  XXXXXXXXXXXXXXXXXXXXXXXXX .XXXXXXXXXXXXXXXXXXXXXXXXXXXXXXXXX..",
"  XXXXXXXXXXXXXXXXXXXXXXXXX .XXXXXXXXXXXXXXXXXXXXXXXXXXXXXXXXX..",
"  XXXXXXXXXXXXXXXXXXXXXXXXX .XXXXXXXXXXXXXXXXXXXXXXXXXXXXXXXXX..",
"  XXXXXXXXXXXXXXXXXXXXXXXXX .XXXXXXXXXXXXXXXXXXXXXXXXXXXXXXXXX..",
"  XXXXXXXXXXXXXXXXXXXXXXXXX ..........XXXXXXXXXXXXXXXXXXXXXXXX..",
"  XXXXXXXXXXXXXXXXXXXXXXXXX          XXXXXXXXXXXXXXXXXXXXXXXXX..",
"  XXXXXXXXXXXXXXXXXXXXXXXXXXXXXXXXXXXXXXXXXXXXXXXXXXXXXXXXXXXX..",
"  XXXXXXXXXXXXXXXXXXXXXXXXX...XXXX..XXXXXXXX..XX.XXXXXX.XXXXXX..",
"  XXXXXXXXXXXX.XXXXXX.XXXX.   .XX . .XXXXXX. .X .XXXXX . XXXXX..",
"  XXXXXXXXXXX .XXXXX .XXX. XX ..X .X .XXXX.  .X .XXXXX.. XXXXX..",
"  XXXXXXXXXXX .XXXXX .XX .XXXX .X .XX .XX. X .X .XXX.. . XXXXX..",
"  XXXXXXXXXXX .XXXXX .XX .XXXX .X .XXX .. XX .X .XXX. X. XXXXX..",
"  XXXXXXXXXXX .XXXXX .XX .XXXX .X .XXXX  XXX .X .XXX. X. XXXXX..",
"  XXXXXXXXXXX .XXXXX .XX .XXXX .X .XXXXXXXXX .X .XXX. X. XXXXX..",
"  XXXXXXXXXXX .XXXXX .XX .XXXX .X .XXXXXXXXX .X .XXX. X. XXXXX..",
"  XXXXXXXXXXX ........XX .......X .XXXXXXXXX .X .XXX. X. XXXXX..",
"  XXXXXXXXXXX .      .XX .     .X .XXXXXXXXX .X .XXX. X. XXXXX..",
"  XXXXXXXXXXX .XXXXX .XX .XXXX .X .XXXXXXXXX .X .XX. XX. XXXXX..",
"  XXXXXXXXXXX .XXXXX .XX .XXXX .X .XXXXXXXXX .X .X. XXX. XXXXX..",
"  XXXXXXXXXXX .XXXXX .XX .XXXX .X .XXXXXXXXX .X .X. XXX. XXXXX..",
"  XXXXXXXXXXX .XXXXX .XX .XXXX .X .XXXXXXXXX .X .X. XXX. XXXXX..",
"  XXXXXXXXXXX .XXXXX .XX .XXXX .X .XXXXXXXXX .X .. XXXX. XXXXX..",
"  XXXXXXXXXXX XXXXXX XXX XXXXX XX XXXXXXXXXX XX   XXXXXX XXXXX..",
"  XXXXXXXXXXXXXXXXXXXXXXXXXXXXXXXXXXXXXXXXXXXXXXXXXXXXXXXXXXXX..",
"  XXXXXXXXXXXXXXXXXXXXXXXXXXXXXXXXXXXXXXXXXXXXXXXXXXXXXXXXXXXX..",
"  XXXXXXXXXXXXXXXXXXXXXXXXXXXXXXXXXXXXXXXXXXXXXXXXXXXXXXXXXXXX..",
"  XXXXXXXXXXXXXXXXXXXXXXXXXXXXXXXXXXXXXXXXXXXXXXXXXXXXXXXXXXXX..",
"  XX   XXXXXXXXXXXXXXXXXXXXXXXXXXXXXXXXXXXXXXXXXXXXXXXXXX   XX..",
"  XX   XXXXXXXXXXXXXXXXXXXXXXXXXXXXXXXXXXXXXXXXXXXXXXXXXX   XX..",
"  XX   XXXXXXXXXXXXXXXXXXXXXXXXXXXXXXXXXXXXXXXXXXXXXXXXXX   XX..",
"  XXXXXXXXXXXXXXXXXXXXXXXXXXXXXXXXXXXXXXXXXXXXXXXXXXXXXXXXXXXX..",
"  XXXXXXXXXXXXXXXXXXXXXXXXXXXXXXXXXXXXXXXXXXXXXXXXXXXXXXXXXXXX..",
"  ..............................................................",
"  .............................................................."
};
